<?xml version="1.0" standalone="no"?><!DOCTYPE svg PUBLIC "-//W3C//DTD SVG 1.1//EN" "http://www.w3.org/Graphics/SVG/1.1/DTD/svg11.dtd"><svg t="1755235381086" class="icon" viewBox="0 0 1024 1024" version="1.1" xmlns="http://www.w3.org/2000/svg" p-id="6666" xmlns:xlink="http://www.w3.org/1999/xlink" width="128" height="128"><path d="M723.622445 200.302562h-422.907234a33.406895 33.406895 0 1 0 0 66.767521h422.907234a33.406895 33.406895 0 0 0 0-66.767521z m0 133.535041h-422.907234a33.406895 33.406895 0 1 0 0 66.767521h422.907234a33.406895 33.406895 0 0 0 0-66.767521z" fill="#999999" p-id="6667"></path><path d="M903.705044 489.674755l-20.636393 7.12557V89.023361A85.923275 85.923275 0 0 0 800.615622 0H223.305604a85.923275 85.923275 0 0 0-82.453029 89.023361v407.776964l-20.636393-7.12557A85.923275 85.923275 0 0 0 37.763152 578.698116v356.278523a85.923275 85.923275 0 0 0 82.45303 89.023361h783.488862a85.923275 85.923275 0 0 0 82.45303-89.023361v-356.278523a85.923275 85.923275 0 0 0-82.45303-89.023361zM202.761752 89.023361a21.469251 21.469251 0 0 1 20.636392-22.25584h577.217478a21.469251 21.469251 0 0 1 20.636392 22.25584v428.690976l-309.268266 105.356649-309.221996-105.356649z m721.811034 845.814468a21.469251 21.469251 0 0 1-20.636392 22.255841H120.216182a21.469251 21.469251 0 0 1-20.636392-22.255841v-356.278523c0-22.25584 20.636392-22.25584 41.226515-22.25584l371.131173 133.535041 370.992364-133.396231h20.636392c8.236049 2.915006 20.636392 12.446613 20.636392 22.25584z" fill="#999999" p-id="6668"></path></svg>